<svg width="33" height="31" viewBox="0 0 33 31" fill="none" xmlns="http://www.w3.org/2000/svg">
<g clip-path="url(#clip0_183_18)">
<path d="M28.875 6.45833C27.3488 6.00625 25.6713 5.8125 24.0625 5.8125C21.3813 5.8125 18.4938 6.32917 16.5 7.75C14.5063 6.32917 11.6188 5.8125 8.9375 5.8125C6.25625 5.8125 3.36875 6.32917 1.375 7.75V26.6729C1.375 26.9958 1.71875 27.3187 2.0625 27.3187C2.2 27.3187 2.26875 27.2542 2.40625 27.2542C4.2625 26.4146 6.94375 25.8333 8.9375 25.8333C11.6188 25.8333 14.5063 26.35 16.5 27.7708C18.3563 26.6729 21.725 25.8333 24.0625 25.8333C26.3313 25.8333 28.6688 26.2208 30.5938 27.1896C30.7313 27.2542 30.8 27.2542 30.9375 27.2542C31.2813 27.2542 31.625 26.9312 31.625 26.6083V7.75C30.8 7.16875 29.9063 6.78125 28.875 6.45833ZM28.875 23.8958C27.3625 23.4437 25.7125 23.25 24.0625 23.25C21.725 23.25 18.3563 24.0896 16.5 25.1875V10.3333C18.3563 9.23542 21.725 8.39583 24.0625 8.39583C25.7125 8.39583 27.3625 8.58958 28.875 9.04167V23.8958Z" fill="#87CEEB"/>
<path d="M24.0625 13.5625C25.2725 13.5625 26.4413 13.6788 27.5 13.8983V11.935C26.4137 11.7412 25.245 11.625 24.0625 11.625C21.725 11.625 19.6075 11.9996 17.875 12.6971V14.8412C19.4287 14.0146 21.5875 13.5625 24.0625 13.5625Z" fill="#87CEEB"/>
<path d="M17.875 16.1329V18.2771C19.4287 17.4504 21.5875 16.9983 24.0625 16.9983C25.2725 16.9983 26.4413 17.1146 27.5 17.3342V15.3708C26.4137 15.1771 25.245 15.0608 24.0625 15.0608C21.725 15.0608 19.6075 15.4483 17.875 16.1329Z" fill="#87CEEB"/>
<path d="M24.0625 18.5096C21.725 18.5096 19.6075 18.8842 17.875 19.5817V21.7258C19.4287 20.8992 21.5875 20.4471 24.0625 20.4471C25.2725 20.4471 26.4413 20.5633 27.5 20.7829V18.8196C26.4137 18.6129 25.245 18.5096 24.0625 18.5096Z" fill="#87CEEB"/>
</g>
<defs>
<clipPath id="clip0_183_18">
<rect width="33" height="31" fill="white"/>
</clipPath>
</defs>
</svg>
